<svg width="72" height="72" viewBox="0 0 72 72" fill="none" xmlns="http://www.w3.org/2000/svg">
<rect width="72" height="72" rx="36" fill="white"/>
<mask id="mask0_43_242" style="mask-type:luminance" maskUnits="userSpaceOnUse" x="12" y="12" width="48" height="48">
<path d="M60 12H12V60H60V12Z" fill="white"/>
</mask>
<g mask="url(#mask0_43_242)">
<path d="M57.719 14.2949V16.5749H50.864V18.8549H48.569V21.15H46.2891V25.725H48.569V32.58H50.864V25.725H53.144V23.43H57.719V21.15H59.999V14.2949H57.719Z" fill="#657ADA"/>
<path d="M57.7169 41.7153H55.4219V50.8653H57.7169V41.7153Z" fill="#657ADA"/>
<path d="M55.4284 50.8652H53.1484V53.1452H55.4284V50.8652Z" fill="#657ADA"/>
<path d="M55.4284 37.1401H53.1484V41.7151H55.4284V37.1401Z" fill="#657ADA"/>
<path d="M53.1472 53.145H50.8672V55.44H53.1472V53.145Z" fill="#657ADA"/>
<path d="M53.1472 32.5801H50.8672V37.1401H53.1472V32.5801Z" fill="#657ADA"/>
<path d="M57.7203 12H48.5703V14.295H57.7203V12Z" fill="#657ADA"/>
<path d="M50.864 55.4399H46.2891V57.7199H50.864V55.4399Z" fill="#657ADA"/>
<path d="M50.8628 41.7153H44.0078V44.0103H50.8628V41.7153Z" fill="#657ADA"/>
<path d="M48.569 14.2949H46.2891V16.5749H48.569V14.2949Z" fill="#657ADA"/>
<path d="M48.5678 46.2896H44.0078V48.5695H48.5678V46.2896Z" fill="#657ADA"/>
<path d="M46.2878 34.8599H44.0078V37.1399H46.2878V34.8599Z" fill="#657ADA"/>
<path d="M46.2878 16.5752H44.0078V18.8552H46.2878V16.5752Z" fill="#657ADA"/>
<path d="M46.2916 57.7202H25.7266V60.0002H46.2916V57.7202Z" fill="#657ADA"/>
<path d="M44.0137 18.855H41.7188V25.725H44.0137V18.855Z" fill="#657ADA"/>
<path d="M32.5781 39.4351V41.7151H34.8581V44.0101H37.1381V41.7151H39.4331V39.4351H32.5781Z" fill="#657ADA"/>
<path d="M41.7113 25.7251H30.2812V28.0051H41.7113V25.7251Z" fill="#657ADA"/>
<path d="M30.2878 18.855H28.0078V25.725H30.2878V18.855Z" fill="#657ADA"/>
<path d="M28.0066 34.8599H25.7266V37.1399H28.0066V34.8599Z" fill="#657ADA"/>
<path d="M28.0066 16.5752H25.7266V18.8552H28.0066V16.5752Z" fill="#657ADA"/>
<path d="M25.7234 55.4399H21.1484V57.7199H25.7234V55.4399Z" fill="#657ADA"/>
<path d="M28.0047 46.2896H23.4297V48.5695H28.0047V46.2896Z" fill="#657ADA"/>
<path d="M28.0034 41.7153H21.1484V44.0103H28.0034V41.7153Z" fill="#657ADA"/>
<path d="M25.7247 14.2949H23.4297V16.5749H25.7247V14.2949Z" fill="#657ADA"/>
<path d="M23.43 25.725H25.725V21.15H23.43V18.8549H21.15V16.5749H14.295V14.2949H12V21.15H14.295V23.43H18.855V25.725H21.15V32.58H23.43V25.725Z" fill="#657ADA"/>
<path d="M21.1465 53.145H18.8516V55.44H21.1465V53.145Z" fill="#657ADA"/>
<path d="M21.1465 32.5801H18.8516V37.1401H21.1465V32.5801Z" fill="#657ADA"/>
<path d="M18.8581 50.8652H16.5781V53.1452H18.8581V50.8652Z" fill="#657ADA"/>
<path d="M18.8581 37.1401H16.5781V41.7151H18.8581V37.1401Z" fill="#657ADA"/>
<path d="M23.4319 12H14.2969V14.295H23.4319V12Z" fill="#657ADA"/>
<path d="M16.5769 41.7153H14.2969V50.8653H16.5769V41.7153Z" fill="#657ADA"/>
<path d="M40.5222 47.3999H38.2422V49.6799H40.5222V47.3999Z" fill="#657ADA"/>
<path d="M33.7253 47.4604H31.4453V49.7404H33.7253V47.4604Z" fill="#657ADA"/>
<path d="M38.2391 49.6802H33.6641V51.9602H38.2391V49.6802Z" fill="#657ADA"/>
</g>
</svg>
