<svg width="68" height="68" viewBox="0 0 68 68" fill="none" xmlns="http://www.w3.org/2000/svg">
<rect width="68" height="68" rx="34" fill="white"/>
<mask id="mask0_43_202" style="mask-type:luminance" maskUnits="userSpaceOnUse" x="14" y="14" width="40" height="40">
<path d="M54 14H14V54H54V14Z" fill="white"/>
</mask>
<g mask="url(#mask0_43_202)">
<path d="M52.0992 15.9124V17.8124H46.3867V19.7124H44.4742V21.6249H42.5742V25.4374H44.4742V31.1499H46.3867V25.4374H48.2867V23.5249H52.0992V21.6249H53.9992V15.9124H52.0992Z" fill="#657ADA"/>
<path d="M52.0961 38.7627H50.1836V46.3877H52.0961V38.7627Z" fill="#657ADA"/>
<path d="M50.1891 46.3877H48.2891V48.2877H50.1891V46.3877Z" fill="#657ADA"/>
<path d="M50.1891 34.9502H48.2891V38.7627H50.1891V34.9502Z" fill="#657ADA"/>
<path d="M48.2906 48.2876H46.3906V50.2001H48.2906V48.2876Z" fill="#657ADA"/>
<path d="M48.2906 31.1501H46.3906V34.9501H48.2906V31.1501Z" fill="#657ADA"/>
<path d="M52.1016 14H44.4766V15.9125H52.1016V14Z" fill="#657ADA"/>
<path d="M46.3867 50.2H42.5742V52.1H46.3867V50.2Z" fill="#657ADA"/>
<path d="M46.3844 38.7627H40.6719V40.6752H46.3844V38.7627Z" fill="#657ADA"/>
<path d="M44.4742 15.9124H42.5742V17.8124H44.4742V15.9124Z" fill="#657ADA"/>
<path d="M44.4719 42.5747H40.6719V44.4747H44.4719V42.5747Z" fill="#657ADA"/>
<path d="M42.5719 33.0498H40.6719V34.9498H42.5719V33.0498Z" fill="#657ADA"/>
<path d="M42.5719 17.8127H40.6719V19.7127H42.5719V17.8127Z" fill="#657ADA"/>
<path d="M42.575 52.1001H25.4375V54.0001H42.575V52.1001Z" fill="#657ADA"/>
<path d="M40.6781 19.7124H38.7656V25.4374H40.6781V19.7124Z" fill="#657ADA"/>
<path d="M31.1484 36.8625V38.7625H33.0484V40.675H34.9484V38.7625H36.8609V36.8625H31.1484Z" fill="#657ADA"/>
<path d="M38.7594 25.4375H29.2344V27.3375H38.7594V25.4375Z" fill="#657ADA"/>
<path d="M29.2398 19.7124H27.3398V25.4374H29.2398V19.7124Z" fill="#657ADA"/>
<path d="M27.3375 33.0498H25.4375V34.9498H27.3375V33.0498Z" fill="#657ADA"/>
<path d="M27.3375 17.8127H25.4375V19.7127H27.3375V17.8127Z" fill="#657ADA"/>
<path d="M25.4375 50.2H21.625V52.1H25.4375V50.2Z" fill="#657ADA"/>
<path d="M27.3359 42.5747H23.5234V44.4747H27.3359V42.5747Z" fill="#657ADA"/>
<path d="M27.3375 38.7627H21.625V40.6752H27.3375V38.7627Z" fill="#657ADA"/>
<path d="M25.4359 15.9124H23.5234V17.8124H25.4359V15.9124Z" fill="#657ADA"/>
<path d="M23.525 25.4374H25.4375V21.6249H23.525V19.7124H21.625V17.8124H15.9125V15.9124H14V21.6249H15.9125V23.5249H19.7125V25.4374H21.625V31.1499H23.525V25.4374Z" fill="#657ADA"/>
<path d="M21.6234 48.2876H19.7109V50.2001H21.6234V48.2876Z" fill="#657ADA"/>
<path d="M21.6234 31.1501H19.7109V34.9501H21.6234V31.1501Z" fill="#657ADA"/>
<path d="M19.7164 46.3877H17.8164V48.2877H19.7164V46.3877Z" fill="#657ADA"/>
<path d="M19.7164 34.9502H17.8164V38.7627H19.7164V34.9502Z" fill="#657ADA"/>
<path d="M23.5266 14H15.9141V15.9125H23.5266V14Z" fill="#657ADA"/>
<path d="M17.8141 38.7627H15.9141V46.3877H17.8141V38.7627Z" fill="#657ADA"/>
<path d="M37.7672 43.5H35.8672V45.4H37.7672V43.5Z" fill="#657ADA"/>
<path d="M32.1031 43.5503H30.2031V45.4503H32.1031V43.5503Z" fill="#657ADA"/>
<path d="M35.8672 45.4001H32.0547V47.3001H35.8672V45.4001Z" fill="#657ADA"/>
</g>
</svg>
