<svg width="64" height="64" viewBox="0 0 64 64" fill="none" xmlns="http://www.w3.org/2000/svg">
<g clip-path="url(#clip0_43_87)">
<path d="M60.9587 3.06006V6.10006H51.8187V9.14006H48.7587V12.2001H45.7188V18.3001H48.7587V27.4401H51.8187V18.3001H54.8587V15.2401H60.9587V12.2001H63.9987V3.06006H60.9587Z" fill="#657ADA"/>
<path d="M60.9584 39.6201H57.8984V51.8201H60.9584V39.6201Z" fill="#657ADA"/>
<path d="M57.8994 51.8201H54.8594V54.8601H57.8994V51.8201Z" fill="#657ADA"/>
<path d="M57.8994 33.52H54.8594V39.62H57.8994V33.52Z" fill="#657ADA"/>
<path d="M54.8603 54.8601H51.8203V57.9201H54.8603V54.8601Z" fill="#657ADA"/>
<path d="M54.8603 27.4399H51.8203V33.5199H54.8603V27.4399Z" fill="#657ADA"/>
<path d="M60.9617 0H48.7617V3.06H60.9617V0Z" fill="#657ADA"/>
<path d="M51.8187 57.9199H45.7188V60.9599H51.8187V57.9199Z" fill="#657ADA"/>
<path d="M51.8197 39.6201H42.6797V42.6801H51.8197V39.6201Z" fill="#657ADA"/>
<path d="M48.7587 3.06006H45.7188V6.10006H48.7587V3.06006Z" fill="#657ADA"/>
<path d="M48.7597 45.72H42.6797V48.76H48.7597V45.72Z" fill="#657ADA"/>
<path d="M45.7197 30.48H42.6797V33.52H45.7197V30.48Z" fill="#657ADA"/>
<path d="M45.7197 6.1001H42.6797V9.1401H45.7197V6.1001Z" fill="#657ADA"/>
<path d="M45.7208 60.96H18.3008V64H45.7208V60.96Z" fill="#657ADA"/>
<path d="M42.6811 9.13989H39.6211V18.2999H42.6811V9.13989Z" fill="#657ADA"/>
<path d="M27.4414 36.5801V39.6201H30.4814V42.6801H33.5214V39.6201H36.5814V36.5801H27.4414Z" fill="#657ADA"/>
<path d="M39.6189 18.3H24.3789V21.34H39.6189V18.3Z" fill="#657ADA"/>
<path d="M24.3798 9.13989H21.3398V18.2999H24.3798V9.13989Z" fill="#657ADA"/>
<path d="M21.3408 30.48H18.3008V33.52H21.3408V30.48Z" fill="#657ADA"/>
<path d="M21.3408 6.1001H18.3008V9.1401H21.3408V6.1001Z" fill="#657ADA"/>
<path d="M18.2992 57.9199H12.1992V60.9599H18.2992V57.9199Z" fill="#657ADA"/>
<path d="M21.3383 45.72H15.2383V48.76H21.3383V45.72Z" fill="#657ADA"/>
<path d="M21.3392 39.6201H12.1992V42.6801H21.3392V39.6201Z" fill="#657ADA"/>
<path d="M18.2983 3.06006H15.2383V6.10006H18.2983V3.06006Z" fill="#657ADA"/>
<path d="M15.24 18.3001H18.3V12.2001H15.24V9.14006H12.2V6.10006H3.06V3.06006H0V12.2001H3.06V15.2401H9.14V18.3001H12.2V27.4401H15.24V18.3001Z" fill="#657ADA"/>
<path d="M12.2006 54.8601H9.14062V57.9201H12.2006V54.8601Z" fill="#657ADA"/>
<path d="M12.2006 27.4399H9.14062V33.5199H12.2006V27.4399Z" fill="#657ADA"/>
<path d="M9.14156 51.8201H6.10156V54.8601H9.14156V51.8201Z" fill="#657ADA"/>
<path d="M9.14156 33.52H6.10156V39.62H9.14156V33.52Z" fill="#657ADA"/>
<path d="M15.2386 0H3.05859V3.06H15.2386V0Z" fill="#657ADA"/>
<path d="M6.09859 39.6201H3.05859V51.8201H6.09859V39.6201Z" fill="#657ADA"/>
<path d="M38.0205 47.2H34.9805V50.24H38.0205V47.2Z" fill="#657ADA"/>
<path d="M28.9619 47.28H25.9219V50.32H28.9619V47.28Z" fill="#657ADA"/>
<path d="M34.9828 50.24H28.8828V53.28H34.9828V50.24Z" fill="#657ADA"/>
</g>
<defs>
<clipPath id="clip0_43_87">
<rect width="64" height="64" fill="white"/>
</clipPath>
</defs>
</svg>
