<svg width="96" height="96" viewBox="0 0 96 96" fill="none" xmlns="http://www.w3.org/2000/svg">
<rect width="96" height="96" rx="48" fill="white"/>
<mask id="mask0_43_202" style="mask-type:luminance" maskUnits="userSpaceOnUse" x="16" y="16" width="64" height="64">
<path d="M80 16H16V80H80V16Z" fill="white"/>
</mask>
<g mask="url(#mask0_43_202)">
<path d="M76.9586 19.0598V22.0998H67.8186V25.1398H64.7587V28.1999H61.7188V34.2999H64.7587V43.4399H67.8186V34.2999H70.8587V31.2399H76.9586V28.1999H79.9986V19.0598H76.9586Z" fill="#657ADA"/>
<path d="M76.9545 55.6204H73.8945V67.8204H76.9545V55.6204Z" fill="#657ADA"/>
<path d="M73.9033 67.8203H70.8633V70.8603H73.9033V67.8203Z" fill="#657ADA"/>
<path d="M73.9033 49.5203H70.8633V55.6203H73.9033V49.5203Z" fill="#657ADA"/>
<path d="M70.8642 70.8601H67.8242V73.9201H70.8642V70.8601Z" fill="#657ADA"/>
<path d="M70.8642 43.4402H67.8242V49.5202H70.8642V43.4402Z" fill="#657ADA"/>
<path d="M76.9617 16H64.7617V19.06H76.9617V16Z" fill="#657ADA"/>
<path d="M67.8186 73.9199H61.7188V76.9599H67.8186V73.9199Z" fill="#657ADA"/>
<path d="M67.8158 55.6204H58.6758V58.6804H67.8158V55.6204Z" fill="#657ADA"/>
<path d="M64.7587 19.0598H61.7188V22.0998H64.7587V19.0598Z" fill="#657ADA"/>
<path d="M64.7558 61.7195H58.6758V64.7595H64.7558V61.7195Z" fill="#657ADA"/>
<path d="M61.7158 46.4797H58.6758V49.5197H61.7158V46.4797Z" fill="#657ADA"/>
<path d="M61.7158 22.1003H58.6758V25.1403H61.7158V22.1003Z" fill="#657ADA"/>
<path d="M61.7208 76.9602H34.3008V80.0002H61.7208V76.9602Z" fill="#657ADA"/>
<path d="M58.685 25.1399H55.625V34.2999H58.685V25.1399Z" fill="#657ADA"/>
<path d="M43.4375 52.5801V55.6201H46.4775V58.6801H49.5175V55.6201H52.5775V52.5801H43.4375Z" fill="#657ADA"/>
<path d="M55.615 34.3H40.375V37.34H55.615V34.3Z" fill="#657ADA"/>
<path d="M40.3838 25.1399H37.3438V34.2999H40.3838V25.1399Z" fill="#657ADA"/>
<path d="M37.3408 46.4797H34.3008V49.5197H37.3408V46.4797Z" fill="#657ADA"/>
<path d="M37.3408 22.1003H34.3008V25.1403H37.3408V22.1003Z" fill="#657ADA"/>
<path d="M34.2992 73.9199H28.1992V76.9599H34.2992V73.9199Z" fill="#657ADA"/>
<path d="M37.3383 61.7195H31.2383V64.7595H37.3383V61.7195Z" fill="#657ADA"/>
<path d="M37.3392 55.6204H28.1992V58.6804H37.3392V55.6204Z" fill="#657ADA"/>
<path d="M34.2983 19.0598H31.2383V22.0998H34.2983V19.0598Z" fill="#657ADA"/>
<path d="M31.24 34.2999H34.3V28.1999H31.24V25.1398H28.2V22.0998H19.06V19.0598H16V28.1999H19.06V31.2399H25.14V34.2999H28.2V43.4399H31.24V34.2999Z" fill="#657ADA"/>
<path d="M28.1967 70.8601H25.1367V73.9201H28.1967V70.8601Z" fill="#657ADA"/>
<path d="M28.1967 43.4402H25.1367V49.5202H28.1967V43.4402Z" fill="#657ADA"/>
<path d="M25.1455 67.8203H22.1055V70.8603H25.1455V67.8203Z" fill="#657ADA"/>
<path d="M25.1455 49.5203H22.1055V55.6203H25.1455V49.5203Z" fill="#657ADA"/>
<path d="M31.2425 16H19.0625V19.06H31.2425V16Z" fill="#657ADA"/>
<path d="M22.1025 55.6204H19.0625V67.8204H22.1025V55.6204Z" fill="#657ADA"/>
<path d="M54.0283 63.2H50.9883V66.24H54.0283V63.2Z" fill="#657ADA"/>
<path d="M44.9658 63.2805H41.9258V66.3205H44.9658V63.2805Z" fill="#657ADA"/>
<path d="M50.9867 66.2402H44.8867V69.2802H50.9867V66.2402Z" fill="#657ADA"/>
</g>
</svg>
